<?xml version="1.0" encoding="utf-8"?>
<!-- Generator: Adobe Illustrator 16.0.0, SVG Export Plug-In . SVG Version: 6.00 Build 0)  -->
<!DOCTYPE svg PUBLIC "-//W3C//DTD SVG 1.1//EN" "http://www.w3.org/Graphics/SVG/1.1/DTD/svg11.dtd">
<svg version="1.1" xmlns="http://www.w3.org/2000/svg" xmlns:xlink="http://www.w3.org/1999/xlink" x="0px" y="0px" width="1792px"
	 height="3616.864px" viewBox="0 0 1792 3616.864" enable-background="new 0 0 1792 3616.864" xml:space="preserve">
<g id="Layer_1">
	<path fill="#626262" d="M640,768h512V576c0-70.666-25-131-75-181s-110.333-75-181-75c-70.666,0-131,25-181,75s-75,110.334-75,181V768z M1472,864
		v576c0,26.667-9.333,49.334-28,68c-18.666,18.667-41.333,28-68,28H416c-26.666,0-49.333-9.333-68-28
		c-18.666-18.666-28-41.333-28-68V864c0-26.666,9.334-49.333,28-68c18.667-18.666,41.334-28,68-28h32V576c0-122.666,44-228,132-316
		s193.334-132,316-132c122.667,0,228,44,316,132s132,193.334,132,316v192h32c26.667,0,49.334,9.334,68,28
		C1462.667,814.667,1472,837.334,1472,864z"/>
</g>
<g id="Layer_2">
	<path fill="#626262" d="M1376,2618.001c26.667,0,49.334,9.334,68,28c18.667,18.667,28,41.334,28,68v576c0,26.667-9.333,49.334-28,68
		c-18.666,18.667-41.333,28-68,28H416c-26.666,0-49.333-9.333-68-28c-18.666-18.666-28-41.333-28-68v-576
		c0-26.666,9.334-49.333,28-68c18.667-18.666,41.334-28,68-28h32v-320c0-123.333,43.834-228.833,131.5-316.5
		c87.667-87.666,193.167-131.5,316.5-131.5c123.334,0,228.834,43.834,316.5,131.5c87.667,87.667,131.5,193.167,131.5,316.5
		c0,17.334-6.333,32.334-19,45c-12.666,12.667-27.666,19-45,19h-64c-17.333,0-32.333-6.333-45-19c-12.666-12.666-19-27.666-19-45
		c0-70.666-25-131-75-181s-110.333-75-181-75c-70.666,0-131,25-181,75s-75,110.334-75,181v320H1376z"/>
</g>
</svg>
