<svg width="1792" height="3583.396" xmlns="http://www.w3.org/2000/svg">

 <g>
  <title>background</title>
  <rect fill="none" id="canvas_background" height="3585.396" width="1794" y="-1" x="-1"/>
 </g>
 <g>
  <title>Layer 1</title>
  <g id="Layer_1">
   <path id="svg_1" d="m1612.000129,2604.993445l0,192c0,26.667 -9.333,49.334 -28,68c-18.666,18.667 -41.333,28 -68,28l-416,0l0,416c0,26.667 -9.333,49.334 -28,68c-18.666,18.667 -41.333,28 -68,28l-192,0c-26.666,0 -49.333,-9.333 -68,-28c-18.666,-18.666 -28,-41.333 -28,-68l0,-416l-416,0c-26.666,0 -49.333,-9.333 -68,-28c-18.666,-18.666 -28,-41.333 -28,-68l0,-192c0,-26.666 9.334,-49.333 28,-68c18.667,-18.666 41.334,-28 68,-28l416,0l0,-416c0,-26.666 9.334,-49.333 28,-68c18.667,-18.666 41.334,-28 68,-28l192,0c26.667,0 49.334,9.334 68,28c18.667,18.667 28,41.334 28,68l0,416l416,0c26.667,0 49.334,9.334 68,28c18.667,18.667 28,41.334 28,68z" fill="#626262"/>
  </g>
  <g id="svg_4">
   <path id="svg_3" d="m1599.999998,776.71187l0,192c0,26.667 -9.333,49.334 -28,68c-18.666,18.667 -41.333,28 -68,28l-1216,0c-26.666,0 -49.333,-9.333 -68,-28c-18.666,-18.666 -28,-41.333 -28,-68l0,-192c0,-26.666 9.334,-49.333 28,-68c18.667,-18.666 41.334,-28 68,-28l1216,0c26.667,0 49.334,9.334 68,28c18.667,18.667 28,41.334 28,68z" fill="#626262"/>
  </g>
  <g id="svg_6">
   <path id="svg_5" d="m1600.000003,2604.993445l0,192c0,26.667 -9.333,49.334 -28,68c-18.666,18.667 -41.333,28 -68,28l-416,0l0,416c0,26.667 -9.333,49.334 -28,68c-18.666,18.667 -41.333,28 -68,28l-192,0c-26.666,0 -49.333,-9.333 -68,-28c-18.666,-18.666 -28,-41.333 -28,-68l0,-416l-416,0c-26.666,0 -49.333,-9.333 -68,-28c-18.666,-18.666 -28,-41.333 -28,-68l0,-192c0,-26.666 9.334,-49.333 28,-68c18.667,-18.666 41.334,-28 68,-28l416,0l0,-416c0,-26.666 9.334,-49.333 28,-68c18.667,-18.666 41.334,-28 68,-28l192,0c26.667,0 49.334,9.334 68,28c18.667,18.667 28,41.334 28,68l0,416l416,0c26.667,0 49.334,9.334 68,28c18.667,18.667 28,41.334 28,68z" fill="#626262"/>
  </g>
 </g>
</svg>