<?xml version="1.0" encoding="utf-8"?>
<!-- Generator: Adobe Illustrator 16.0.0, SVG Export Plug-In . SVG Version: 6.00 Build 0)  -->
<!DOCTYPE svg PUBLIC "-//W3C//DTD SVG 1.1//EN" "http://www.w3.org/Graphics/SVG/1.1/DTD/svg11.dtd">
<svg version="1.1" xmlns="http://www.w3.org/2000/svg" xmlns:xlink="http://www.w3.org/1999/xlink" x="0px" y="0px" width="1792px"
	 height="1792px" viewBox="0 0 1792 1792" enable-background="new 0 0 1792 1792" xml:space="preserve">
<g id="Layer_1">
	<path d="M1325,1126.614c0,10.482-1.941,24.169-5.823,41.058c-3.883,16.889-7.96,30.188-12.231,39.894
		c-8.153,19.413-31.836,39.99-71.05,61.733c-36.497,19.801-72.604,29.701-108.325,29.701c-10.482,0-20.771-0.68-30.866-2.039
		c-10.094-1.358-21.257-3.784-33.487-7.279c-12.229-3.494-21.354-6.309-27.372-8.444c-6.018-2.136-16.792-6.115-32.321-11.938
		c-15.531-5.824-25.044-9.319-28.537-10.483c-38.05-13.589-72.022-29.701-101.918-48.339
		c-49.308-30.672-100.558-72.604-153.75-125.795c-53.19-53.19-95.123-104.44-125.795-153.75
		c-18.636-29.896-34.749-63.868-48.338-101.917c-1.165-3.495-4.659-13.006-10.483-28.537c-5.824-15.529-9.803-26.304-11.939-32.322
		c-2.135-6.018-4.95-15.142-8.445-27.372c-3.494-12.23-5.92-23.392-7.28-33.487C505.679,697.2,505,686.911,505,676.429
		c0-35.72,9.901-71.828,29.702-108.324c21.743-39.214,42.32-62.898,61.733-71.051c9.707-4.271,23.004-8.348,39.894-12.23
		c16.889-3.883,30.575-5.824,41.058-5.824c5.436,0,9.513,0.582,12.23,1.747c6.989,2.33,17.278,17.084,30.867,44.262
		c4.271,7.377,10.095,17.86,17.472,31.448c7.377,13.59,14.172,25.917,20.384,36.982c6.212,11.065,12.229,21.452,18.054,31.158
		c1.165,1.553,4.563,6.406,10.191,14.56c5.63,8.153,9.804,15.045,12.521,20.675c2.718,5.63,4.077,11.163,4.077,16.598
		c0,7.765-5.533,17.472-16.599,29.119c-11.065,11.648-23.101,22.325-36.108,32.031c-13.006,9.707-25.042,19.996-36.107,30.866
		c-11.066,10.872-16.599,19.801-16.599,26.79c0,3.495,0.971,7.862,2.913,13.104c1.941,5.241,3.591,9.221,4.95,11.938
		c1.359,2.718,4.077,7.377,8.153,13.977c4.077,6.601,6.31,10.289,6.698,11.065c29.508,53.192,63.286,98.812,101.335,136.861
		c38.05,38.05,83.67,71.828,136.861,101.336c0.777,0.388,4.466,2.62,11.065,6.696c6.601,4.077,11.261,6.795,13.978,8.153
		c2.718,1.359,6.697,3.01,11.939,4.951c5.24,1.941,9.609,2.911,13.103,2.911c6.989,0,15.919-5.532,26.791-16.597
		c10.871-11.065,21.159-23.102,30.865-36.109c9.707-13.006,20.385-25.042,32.031-36.107c11.648-11.064,21.354-16.598,29.119-16.598
		c5.438,0,10.969,1.359,16.599,4.077s12.521,6.892,20.675,12.521c8.153,5.63,13.008,9.027,14.56,10.191
		c9.707,5.824,20.092,11.843,31.158,18.055c11.064,6.212,23.393,13.007,36.98,20.383c13.591,7.378,24.073,13.201,31.45,17.473
		c27.178,13.589,41.931,23.878,44.261,30.865C1324.417,1117.101,1325,1121.178,1325,1126.614z"/>
</g>
<g id="Layer_2">
	<path d="M1441,894c0-107.333-29-205.666-87-295l-754,753c91.334,59.334,190.334,89,297,89c74,0,144.5-14.5,211.5-43.5
		s124.834-67.833,173.5-116.5c48.667-48.666,87.334-106.833,116-174.5C1426.667,1038.834,1441,968,1441,894z M442,1193l755-754
		c-90-60.666-190-91-300-91c-98.666,0-189.666,24.334-273,73c-83.333,48.667-149.333,115-198,199c-48.666,84-73,175.334-73,274
		C353,1002,382.667,1101.667,442,1193z M1665,894c0,104.667-20.333,204.667-61,300c-40.666,95.334-95.166,177.334-163.5,246
		c-68.333,68.667-150,123.334-245,164c-95,40.667-194.5,61-298.5,61s-203.5-20.333-298.5-61c-95-40.666-176.666-95.333-245-164
		c-68.333-68.666-122.833-150.666-163.5-246c-40.666-95.333-61-195.333-61-300c0-104.666,20.334-204.5,61-299.5
		c40.667-95,95.167-176.833,163.5-245.5c68.334-68.666,150-123.333,245-164c95-40.666,194.5-61,298.5-61s203.5,20.334,298.5,61
		c95,40.667,176.667,95.334,245,164c68.334,68.667,122.834,150.5,163.5,245.5C1644.667,689.5,1665,789.334,1665,894z"/>
</g>
</svg>
