<?xml version="1.0"?>
<svg xmlns="http://www.w3.org/2000/svg" viewBox="0 0 24 24" enable-background="new 0 0 24 24">
    <path style="text-indent:0;text-align:start;line-height:normal;text-transform:none;block-progression:tb;-inkscape-font-specification:Bitstream Vera Sans" d="M 8.78125 2.28125 L 2.78125 8.28125 L 2.09375 9 L 2.78125 9.71875 L 8.78125 15.71875 L 10.21875 14.28125 L 5.9375 10 L 17 10 C 19.754545 10 22 12.245455 22 15 C 22 17.754545 19.754545 20 17 20 L 15 20 L 15 22 L 17 22 C 20.845455 22 24 18.845455 24 15 C 24 11.154545 20.845455 8 17 8 L 5.9375 8 L 10.21875 3.71875 L 8.78125 2.28125 z M 3 20 L 3 22 L 5 22 L 5 20 L 3 20 z M 7 20 L 7 22 L 9 22 L 9 20 L 7 20 z M 11 20 L 11 22 L 13 22 L 13 20 L 11 20 z" overflow="visible" enable-background="accumulate" font-family="Bitstream Vera Sans"/>
</svg>
